# xmcd CD database file
#
# Track frame offsets:
#	150
#	15899
#	29716
#	43909
#	69258
#	85007
#	100659
#	112059
#	126426
#	138275
#	149449
#	160698
#	182083
#	203823
#	227539
#	253136
#	279085
#	309441
#
# Disc length: 4613 seconds
#
# Revision: 0
# Processed by: cddbd v1.5.1PL0 Copyright (c) Steve Scherf et al.
# Submitted via: CDex 1.50
#
DISCID=f2120312
DTITLE=Gnomusi (David Caballero) - Ethereality
DYEAR=2004
DGENRE=New Age
TTITLE0=Altair
TTITLE1=Virtuality II
TTITLE2=Alexandra
TTITLE3=Dolmen ridge
TTITLE4=Birth of Blodeuwedd
TTITLE5=Isabel romantica
TTITLE6=Runa
TTITLE7=Mystic Knight
TTITLE8=World's end garden
TTITLE9=Camelot
TTITLE10=Dance of the mist
TTITLE11=Tagorth the cavern
TTITLE12=Shadows in the wood
TTITLE13=Footprints on the sea
TTITLE14=Posidonia
TTITLE15=Echoes from Rivendell
TTITLE16=Ballerina
TTITLE17=Data Track
EXTD=YEAR: 2004
EXTT0=
EXTT1=
EXTT2=
EXTT3=
EXTT4=
EXTT5=
EXTT6=
EXTT7=
EXTT8=
EXTT9=
EXTT10=
EXTT11=
EXTT12=
EXTT13=
EXTT14=
EXTT15=
EXTT16=
EXTT17=
PLAYORDER=
